<svg xmlns="http://www.w3.org/2000/svg" viewBox="0 0 64 64">
  <rect width="64" height="64" rx="12" fill="#E11D2E"/>
  <!-- Wrench body -->
  <path d="M41 10a12 12 0 0 0-11.6 15.1L10.7 43.8a4 4 0 0 0 0 5.7l3.8 3.8a4 4 0 0 0 5.7 0l18.7-18.7A12 12 0 1 0 41 10zm0 18a6 6 0 1 1 0-12 6 6 0 0 1 0 12z" fill="#fff"/>
  <!-- Document lines -->
  <rect x="8" y="10" width="18" height="2.5" rx="1.2" fill="#fff" opacity="0.35"/>
  <rect x="8" y="15" width="13" height="2.5" rx="1.2" fill="#fff" opacity="0.35"/>
</svg>
